<svg width="48" height="48" viewBox="0 0 48 48" fill="none" xmlns="http://www.w3.org/2000/svg">
<path d="M24.0003 47.3334C20.7725 47.3334 17.7392 46.7205 14.9003 45.4947C12.0614 44.269 9.59199 42.6069 7.49199 40.5084C5.39199 38.4084 3.72988 35.939 2.50566 33.1001C1.28144 30.2612 0.668548 27.2279 0.666992 24.0001C0.666992 20.7723 1.27988 17.739 2.50566 14.9001C3.73144 12.0612 5.39355 9.59175 7.49199 7.49175C9.59199 5.39175 12.0614 3.72964 14.9003 2.50541C17.7392 1.28119 20.7725 0.668304 24.0003 0.666748C27.2281 0.666748 30.2614 1.27964 33.1003 2.50541C35.9392 3.73119 38.4087 5.3933 40.5087 7.49175C42.6087 9.59175 44.2715 12.0612 45.4973 14.9001C46.7231 17.739 47.3352 20.7723 47.3337 24.0001C47.3337 27.2279 46.7208 30.2612 45.495 33.1001C44.2692 35.939 42.6071 38.4084 40.5087 40.5084C38.4087 42.6084 35.9392 44.2713 33.1003 45.4971C30.2614 46.7229 27.2281 47.335 24.0003 47.3334ZM24.467 26.3334L22.367 28.4334C21.9392 28.8612 21.7253 29.4056 21.7253 30.0667C21.7253 30.7279 21.9392 31.2723 22.367 31.7001C22.7948 32.1279 23.3392 32.3417 24.0003 32.3417C24.6614 32.3417 25.2059 32.1279 25.6337 31.7001L31.7003 25.6334C32.167 25.1667 32.4003 24.6223 32.4003 24.0001C32.4003 23.3779 32.167 22.8334 31.7003 22.3667L25.6337 16.3001C25.2059 15.8723 24.6614 15.6584 24.0003 15.6584C23.3392 15.6584 22.7948 15.8723 22.367 16.3001C21.9392 16.7279 21.7253 17.2723 21.7253 17.9334C21.7253 18.5945 21.9392 19.139 22.367 19.5667L24.467 21.6667H17.0003C16.3392 21.6667 15.7847 21.8907 15.3367 22.3387C14.8887 22.7867 14.6654 23.3405 14.667 24.0001C14.667 24.6612 14.891 25.2157 15.339 25.6637C15.787 26.1117 16.3408 26.335 17.0003 26.3334H24.467Z" fill="#005A9B"/>
</svg>
