<svg width="121" height="138" viewBox="0 0 121 138" fill="none" xmlns="http://www.w3.org/2000/svg">
<path d="M37.5 45.8333H75V54.1666H37.5V45.8333Z" fill="#414141"/>
<path d="M37.5 62.5H75V70.8333H37.5V62.5Z" fill="#414141"/>
<path d="M37.5 79.1665H75V87.4998H37.5V79.1665Z" fill="#414141"/>
<path d="M37.5 95.8333H75V104.167H37.5V95.8333Z" fill="#414141"/>
<path d="M20.833 29.1665H29.1663V37.4998H20.833V29.1665Z" fill="#414141"/>
<path d="M20.833 45.8333H29.1663V54.1666H20.833V45.8333Z" fill="#414141"/>
<path d="M20.833 62.5H29.1663V70.8333H20.833V62.5Z" fill="#414141"/>
<path d="M20.833 79.1665H29.1663V87.4998H20.833V79.1665Z" fill="#414141"/>
<path d="M20.833 95.8333H29.1663V104.167H20.833V95.8333Z" fill="#414141"/>
<path d="M37.5 29.1665V37.4998H73.5833C71.9436 34.9198 70.694 32.1117 69.875 29.1665H37.5Z" fill="#414141"/>
<path d="M91.6667 50.9165V129.167H8.33333V12.4998H69.9167C70.7227 9.55695 71.9582 6.74898 73.5833 4.1665H8.33333C6.1232 4.1665 4.00358 5.04448 2.44078 6.60728C0.877973 8.17008 0 10.2897 0 12.4998V129.167C0 131.377 0.877973 133.496 2.44078 135.059C4.00358 136.622 6.1232 137.5 8.33333 137.5H91.6667C93.8768 137.5 95.9964 136.622 97.5592 135.059C99.122 133.496 100 131.377 100 129.167V52.0832C97.1823 52.0723 94.379 51.6798 91.6667 50.9165Z" fill="#414141"/>
<path d="M100 41.6667C111.506 41.6667 120.834 32.3393 120.834 20.8333C120.834 9.3274 111.506 0 100 0C88.4944 0 79.167 9.3274 79.167 20.8333C79.167 32.3393 88.4944 41.6667 100 41.6667Z" fill="#414141"/>
</svg>
