<svg width="123" height="132" viewBox="0 0 123 132" fill="none" xmlns="http://www.w3.org/2000/svg">
<path d="M123 100.748L113.5 96.0261V84.7778C113.488 78.0883 111.098 71.6182 106.752 66.5111C102.406 61.4041 96.384 57.989 89.75 56.8694V47H80.25V56.8694C73.616 57.989 67.5938 61.4041 63.2477 66.5111C58.9016 71.6182 56.5115 78.0883 56.5 84.7778V96.0261L47 100.748V122.556H75.5V132H94.5V122.556H123V100.748ZM113.5 113.111H56.5V106.585L66 101.863V84.7778C66 79.7681 68.0018 74.9637 71.565 71.4213C75.1282 67.879 79.9609 65.8889 85 65.8889C90.0391 65.8889 94.8718 67.879 98.435 71.4213C101.998 74.9637 104 79.7681 104 84.7778V101.863L113.5 106.585V113.111Z" fill="#414141"/>
<path d="M114 18.9231C114 16.4137 112.999 14.0071 111.218 12.2328C109.436 10.4584 107.02 9.46154 104.5 9.46154H85.5V0H76V9.46154H38V0H28.5V9.46154H9.5C6.98044 9.46154 4.56408 10.4584 2.78249 12.2328C1.00089 14.0071 0 16.4137 0 18.9231V113.538C0 116.048 1.00089 118.454 2.78249 120.229C4.56408 122.003 6.98044 123 9.5 123H28.5V113.538H9.5V18.9231H28.5V28.3846H38V18.9231H76V28.3846H85.5V18.9231H104.5V47.3077H114V18.9231Z" fill="#414141"/>
</svg>
