<svg width="100" height="134" viewBox="0 0 100 134" fill="none" xmlns="http://www.w3.org/2000/svg">
<path d="M91.6667 46.9165V125.167H8.33333V8.49984H69.9167C70.7227 5.55695 71.9582 2.74898 73.5833 0.166504H8.33333C6.1232 0.166504 4.00358 1.04448 2.44078 2.60728C0.877973 4.17008 0 6.2897 0 8.49984V125.167C0 127.377 0.877973 129.496 2.44078 131.059C4.00358 132.622 6.1232 133.5 8.33333 133.5H91.6667C93.8768 133.5 95.9964 132.622 97.5592 131.059C99.122 129.496 100 127.377 100 125.167V48.0832C97.1823 48.0723 94.379 47.6798 91.6667 46.9165Z" fill="#414141"/>
</svg>
