<svg width="102" height="112" viewBox="0 0 102 112" fill="none" xmlns="http://www.w3.org/2000/svg">
<path d="M44.0208 79.7293L31.4583 74.0064C30.9 73.7272 30.6208 73.3084 30.6208 72.7501C30.6208 72.1918 30.9 71.773 31.4583 71.4939L44.0208 65.7709L49.7438 53.2084C50.0229 52.6501 50.4417 52.3709 51 52.3709C51.5583 52.3709 51.9771 52.6501 52.2563 53.2084L57.9792 65.7709L70.5417 71.4939C71.1 71.773 71.3792 72.1918 71.3792 72.7501C71.3792 73.3084 71.1 73.7272 70.5417 74.0064L57.9792 79.7293L52.2563 92.2918C51.9771 92.8501 51.5583 93.1293 51 93.1293C50.4417 93.1293 50.0229 92.8501 49.7438 92.2918L44.0208 79.7293ZM11.9167 111.833C8.84584 111.833 6.21609 110.739 4.02743 108.55C1.83876 106.362 0.746287 103.734 0.750009 100.667V22.5001C0.750009 19.4293 1.84434 16.7995 4.03301 14.6109C6.22168 12.4222 8.84956 11.3297 11.9167 11.3334H17.5V5.7501C17.5 4.16816 18.036 2.84118 19.108 1.76918C20.18 0.697184 21.5051 0.163045 23.0833 0.166767C24.6653 0.166767 25.9923 0.702768 27.0643 1.77477C28.1363 2.84677 28.6704 4.17188 28.6667 5.7501V11.3334H73.3333V5.7501C73.3333 4.16816 73.8693 2.84118 74.9413 1.76918C76.0133 0.697184 77.3384 0.163045 78.9167 0.166767C80.4986 0.166767 81.8256 0.702768 82.8976 1.77477C83.9696 2.84677 84.5037 4.17188 84.5 5.7501V11.3334H90.0833C93.1542 11.3334 95.7839 12.4278 97.9726 14.6164C100.161 16.8051 101.254 19.433 101.25 22.5001V100.667C101.25 103.738 100.156 106.367 97.967 108.556C95.7783 110.745 93.1505 111.837 90.0833 111.833H11.9167ZM11.9167 100.667H90.0833V44.8334H11.9167V100.667ZM11.9167 33.6668H90.0833V22.5001H11.9167V33.6668Z" fill="#414141"/>
</svg>
