<svg width="76" height="85" viewBox="0 0 76 85" fill="none" xmlns="http://www.w3.org/2000/svg">
<path d="M76 53.7483L66.5 49.0261V37.7778C66.4884 31.0883 64.0984 24.6182 59.7523 19.5111C55.4062 14.4041 49.384 10.989 42.75 9.86945V0H33.25V9.86945C26.616 10.989 20.5938 14.4041 16.2477 19.5111C11.9016 24.6182 9.51155 31.0883 9.5 37.7778V49.0261L0 53.7483V75.5556H28.5V85H47.5V75.5556H76V53.7483ZM66.5 66.1111H9.5V59.585L19 54.8628V37.7778C19 32.7681 21.0018 27.9637 24.565 24.4213C28.1282 20.879 32.9609 18.8889 38 18.8889C43.0391 18.8889 47.8718 20.879 51.435 24.4213C54.9982 27.9637 57 32.7681 57 37.7778V54.8628L66.5 59.585V66.1111Z" fill="#414141"/>
</svg>
