<svg width="103" height="135" viewBox="0 0 103 135" fill="none" xmlns="http://www.w3.org/2000/svg">
<path d="M51.5 12.8571C65.6625 12.8571 77.25 24.4286 77.25 38.5714C77.25 52.0714 63.7313 73.9286 51.5 89.3571C39.2687 73.2857 25.75 52.0714 25.75 38.5714C25.75 24.4286 37.3375 12.8571 51.5 12.8571ZM51.5 0C30.2563 0 12.875 17.3571 12.875 38.5714C12.875 67.5 51.5 109.286 51.5 109.286C51.5 109.286 90.125 66.8571 90.125 38.5714C90.125 17.3571 72.7438 0 51.5 0ZM51.5 25.7143C44.4188 25.7143 38.625 31.5 38.625 38.5714C38.625 45.6429 44.4188 51.4286 51.5 51.4286C58.5812 51.4286 64.375 45.6429 64.375 38.5714C64.375 31.5 58.5812 25.7143 51.5 25.7143ZM103 109.286C103 123.429 79.825 135 51.5 135C23.175 135 0 123.429 0 109.286C0 100.929 7.725 93.8571 19.9562 88.7143L23.8187 94.5C17.3812 97.7143 12.875 101.571 12.875 106.071C12.875 115.071 30.2563 122.143 51.5 122.143C72.7438 122.143 90.125 115.071 90.125 106.071C90.125 101.571 85.6188 97.7143 78.5375 94.5L82.4 88.7143C95.275 93.8571 103 100.929 103 109.286Z" fill="#414141"/>
</svg>
