<svg width="133" height="133" viewBox="0 0 133 133" fill="none" xmlns="http://www.w3.org/2000/svg">
<path d="M58.1875 33.25V41.5625H33.25V33.25H58.1875ZM33.25 58.1875V49.875H58.1875V58.1875H33.25ZM33.25 74.8125V66.5H49.875V74.8125H33.25ZM24.9375 33.25V41.5625H16.625V33.25H24.9375ZM24.9375 49.875V58.1875H16.625V49.875H24.9375ZM16.625 74.8125V66.5H24.9375V74.8125H16.625ZM8.3125 8.3125V124.688H49.875V133H0V0H72.4097L108.062 35.6528V49.875H99.75V41.5625H66.5V8.3125H8.3125ZM74.8125 14.2222V33.25H93.8403L74.8125 14.2222ZM116.375 66.5H133V133H58.1875V66.5H74.8125V58.1875H83.125V66.5H108.062V58.1875H116.375V66.5ZM124.688 124.688V91.4375H66.5V124.688H124.688ZM124.688 83.125V74.8125H66.5V83.125H124.688Z" fill="#333333"/>
</svg>
