<svg width="143" height="113" viewBox="0 0 143 113" fill="none" xmlns="http://www.w3.org/2000/svg">
<path d="M0 22.9219C0 16.8426 2.41498 11.0123 6.71366 6.71366C11.0123 2.41498 16.8426 0 22.9219 0H119.703C125.782 0 131.613 2.41498 135.911 6.71366C140.21 11.0123 142.625 16.8426 142.625 22.9219V89.1406C142.625 95.2199 140.21 101.05 135.911 105.349C131.613 109.648 125.782 112.062 119.703 112.062H22.9219C16.8426 112.062 11.0123 109.648 6.71366 105.349C2.41498 101.05 0 95.2199 0 89.1406V22.9219ZM22.9219 10.1875C19.5445 10.1875 16.3055 11.5292 13.9173 13.9173C11.5292 16.3055 10.1875 19.5445 10.1875 22.9219V30.5625H132.438V22.9219C132.438 19.5445 131.096 16.3055 128.708 13.9173C126.32 11.5292 123.08 10.1875 119.703 10.1875H22.9219ZM10.1875 89.1406C10.1875 92.518 11.5292 95.757 13.9173 98.1452C16.3055 100.533 19.5445 101.875 22.9219 101.875H119.703C123.08 101.875 126.32 100.533 128.708 98.1452C131.096 95.757 132.438 92.518 132.438 89.1406V40.75H10.1875V89.1406ZM96.7812 71.3125H112.062C113.413 71.3125 114.709 71.8492 115.664 72.8044C116.62 73.7597 117.156 75.0553 117.156 76.4062C117.156 77.7572 116.62 79.0528 115.664 80.0081C114.709 80.9633 113.413 81.5 112.062 81.5H96.7812C95.4303 81.5 94.1347 80.9633 93.1794 80.0081C92.2242 79.0528 91.6875 77.7572 91.6875 76.4062C91.6875 75.0553 92.2242 73.7597 93.1794 72.8044C94.1347 71.8492 95.4303 71.3125 96.7812 71.3125Z" fill="#414141"/>
</svg>
