<svg width="114" height="123" viewBox="0 0 114 123" fill="none" xmlns="http://www.w3.org/2000/svg">
<path d="M114 18.9231C114 16.4137 112.999 14.0071 111.218 12.2328C109.436 10.4584 107.02 9.46154 104.5 9.46154H85.5V0H76V9.46154H38V0H28.5V9.46154H9.5C6.98044 9.46154 4.56408 10.4584 2.78249 12.2328C1.00089 14.0071 0 16.4137 0 18.9231V113.538C0 116.048 1.00089 118.454 2.78249 120.229C4.56408 122.003 6.98044 123 9.5 123H28.5V113.538H9.5V18.9231H28.5V28.3846H38V18.9231H76V28.3846H85.5V18.9231H104.5V47.3077H114V18.9231Z" fill="#414141"/>
</svg>
