<svg width="27" height="30" viewBox="0 0 27 30" fill="none" xmlns="http://www.w3.org/2000/svg">
<path d="M3.75 25.875H8.625V16.125H18.375V25.875H23.25V11.25L13.5 3.9375L3.75 11.25V25.875ZM3.75 29.125C2.85625 29.125 2.09088 28.8065 1.45388 28.1695C0.816878 27.5325 0.498919 26.7677 0.500003 25.875V11.25C0.500003 10.7354 0.615377 10.2479 0.846127 9.7875C1.07688 9.32708 1.39484 8.94792 1.8 8.65L11.55 1.3375C11.8479 1.12083 12.1594 0.958333 12.4844 0.85C12.8094 0.741667 13.1479 0.6875 13.5 0.6875C13.8521 0.6875 14.1906 0.741667 14.5156 0.85C14.8406 0.958333 15.1521 1.12083 15.45 1.3375L25.2 8.65C25.6063 8.94792 25.9248 9.32708 26.1555 9.7875C26.3863 10.2479 26.5011 10.7354 26.5 11.25V25.875C26.5 26.7687 26.1815 27.5341 25.5445 28.1711C24.9075 28.8081 24.1427 29.1261 23.25 29.125H15.125V19.375H11.875V29.125H3.75Z" fill="#005A9B"/>
</svg>
